
  <svg xmlns="http://www.w3.org/2000/svg" width="2736" height="1260" viewBox="0 0 2736 1260">
    <defs>
      <linearGradient id="bg" x1="0" y1="0" x2="1" y2="1">
        <stop offset="0%" stop-color="#FFF2E8" />
        <stop offset="100%" stop-color="#FCE0D0" />
      </linearGradient>
      <filter id="shadow" x="-20%" y="-20%" width="140%" height="140%">
        <feDropShadow dx="0" dy="32" stdDeviation="30" flood-color="#19303D" flood-opacity="0.16" />
      </filter>
    </defs>
    <rect width="2736" height="1260" fill="url(#bg)" />
    <circle cx="2380" cy="1080" r="360" fill="#F26B5B" opacity="0.10" />
    <circle cx="320" cy="1060" r="260" fill="#FFFFFF" opacity="0.28" />
    <path d="M 0 920 C 400 820, 720 1080, 1120 960 S 1900 760, 2736 980 L 2736 1260 L 0 1260 Z" fill="#FFFFFF" opacity="0.22" />
    <g filter="url(#shadow)">
      
    <g>
      <rect x="1696" y="120" width="820" height="1020" rx="92" fill="#101A22" />
      <rect x="1718" y="142" width="776" height="976" rx="74" fill="#FFFFFF" />
      <rect x="2038" y="138" width="136" height="18" rx="9" fill="#101A22" opacity="0.92" />
      <g transform="translate(1718, 142)">
        
      
    <rect x="0" y="0" width="776" height="88" fill="#0A2B3D" />
    <circle cx="48" cy="44" r="14" fill="#F3E7D3" opacity="0.9" />
    <text x="84" y="53" font-size="30" font-weight="700" fill="#FFFFFF" font-family="Arial, sans-serif">Explore</text>
  
      
    <g>
      <rect x="34" y="118" width="708" height="276" rx="28" fill="#F7D9C8" />
      <rect x="58" y="142" width="660" height="124.2" rx="24" fill="#FFFFFF" opacity="0.55" />
      <rect x="58" y="146" width="120" height="34" rx="17" fill="#FFFFFF" />
      <text x="118" y="169" text-anchor="middle" font-size="18" font-weight="700" fill="#18313F" font-family="Arial, sans-serif">Stay</text>
      <text x="58" y="322" font-size="28" font-weight="700" fill="#18313F" font-family="Arial, sans-serif">Beach house</text>
      <text x="58" y="356" font-size="20" fill="#18313F" opacity="0.78" font-family="Arial, sans-serif">El Nido, Palawan</text>
    </g>
  
      
    <g>
      <rect x="34" y="418" width="708" height="236" rx="28" fill="#D9EAF2" />
      <rect x="58" y="442" width="660" height="120" rx="24" fill="#FFFFFF" opacity="0.55" />
      <rect x="58" y="446" width="120" height="34" rx="17" fill="#FFFFFF" />
      <text x="118" y="469" text-anchor="middle" font-size="18" font-weight="700" fill="#18313F" font-family="Arial, sans-serif">Trip</text>
      <text x="58" y="582" font-size="28" font-weight="700" fill="#18313F" font-family="Arial, sans-serif">Island hopping</text>
      <text x="58" y="616" font-size="20" fill="#18313F" opacity="0.78" font-family="Arial, sans-serif">Full-day activity</text>
    </g>
  
      
    <g>
      <rect x="34" y="676" width="708" height="266" rx="28" fill="#E7ECD7" />
      <rect x="58" y="700" width="660" height="120" rx="24" fill="#FFFFFF" opacity="0.55" />
      <rect x="58" y="704" width="120" height="34" rx="17" fill="#FFFFFF" />
      <text x="118" y="727" text-anchor="middle" font-size="18" font-weight="700" fill="#18313F" font-family="Arial, sans-serif">Notes</text>
      <text x="58" y="870" font-size="28" font-weight="700" fill="#18313F" font-family="Arial, sans-serif">Saved notes</text>
      <text x="58" y="904" font-size="20" fill="#18313F" opacity="0.78" font-family="Arial, sans-serif">Packing, timings, pickup</text>
    </g>
  
    
      </g>
    </g>
  
    </g>
    <rect x="180" y="142" width="190" height="42" rx="21" fill="#F26B5B" opacity="0.15" />
    <text x="275" y="171" text-anchor="middle" font-size="24" font-weight="700" fill="#18313F" font-family="Arial, sans-serif">The problem</text>
    <text x="180" y="280" class="title"><tspan x="180" dy="0">Travel planning is all</tspan><tspan x="180" dy="88">over the place.</tspan></text>
    <text x="180" y="560" class="subtitle"><tspan x="180" dy="0">Hotels, routes, activities, and notes</tspan><tspan x="180" dy="48">usually live in different apps.</tspan></text>
    
    <text x="180" y="960" font-size="28" font-weight="700" fill="#18313F" opacity="0.88" font-family="Arial, sans-serif">MyExplorer</text>
    <text x="180" y="1004" font-size="22" fill="#18313F" opacity="0.68" font-family="Arial, sans-serif">Trip planning, discovery, and saved routes in one place</text>
    <style>
      .title { font: 700 72px Arial, sans-serif; fill: #18313F; }
      .subtitle { font: 400 34px Arial, sans-serif; fill: #18313F; opacity: 0.8; }
    </style>
  </svg>
  