
  <svg xmlns="http://www.w3.org/2000/svg" width="2736" height="1260" viewBox="0 0 2736 1260">
    <defs>
      <linearGradient id="bg" x1="0" y1="0" x2="1" y2="1">
        <stop offset="0%" stop-color="#E8F2F7" />
        <stop offset="100%" stop-color="#D8E8EF" />
      </linearGradient>
      <filter id="shadow" x="-20%" y="-20%" width="140%" height="140%">
        <feDropShadow dx="0" dy="32" stdDeviation="30" flood-color="#19303D" flood-opacity="0.16" />
      </filter>
    </defs>
    <rect width="2736" height="1260" fill="url(#bg)" />
    <circle cx="2380" cy="1080" r="360" fill="#0F3D56" opacity="0.10" />
    <circle cx="320" cy="1060" r="260" fill="#FFFFFF" opacity="0.28" />
    <path d="M 0 920 C 400 820, 720 1080, 1120 960 S 1900 760, 2736 980 L 2736 1260 L 0 1260 Z" fill="#FFFFFF" opacity="0.22" />
    <g filter="url(#shadow)">
      
    <g>
      <rect x="1696" y="120" width="820" height="1020" rx="92" fill="#101A22" />
      <rect x="1718" y="142" width="776" height="976" rx="74" fill="#FFFFFF" />
      <rect x="2038" y="138" width="136" height="18" rx="9" fill="#101A22" opacity="0.92" />
      <g transform="translate(1718, 142)">
        
      
    <rect x="0" y="0" width="776" height="88" fill="#0A2B3D" />
    <circle cx="48" cy="44" r="14" fill="#F3E7D3" opacity="0.9" />
    <text x="84" y="53" font-size="30" font-weight="700" fill="#FFFFFF" font-family="Arial, sans-serif">Trip Planner</text>
  
      <rect x="34" y="126" width="708" height="154" rx="28" fill="#E6EFF4" />
      <text x="64" y="184" font-size="28" font-weight="700" fill="#18313F" font-family="Arial, sans-serif">Manila to La Union</text>
      <text x="64" y="224" font-size="20" fill="#18313F" opacity="0.75" font-family="Arial, sans-serif">4 travelers • 2 vehicles • 5 stops</text>
      <rect x="34" y="308" width="345" height="230" rx="26" fill="#F7E4D9" />
      <rect x="397" y="308" width="345" height="230" rx="26" fill="#E1EAD8" />
      <text x="64" y="360" font-size="24" font-weight="700" fill="#18313F" font-family="Arial, sans-serif">Vehicle A</text>
      <text x="64" y="396" font-size="18" fill="#18313F" opacity="0.72" font-family="Arial, sans-serif">3 assigned</text>
      <text x="427" y="360" font-size="24" font-weight="700" fill="#18313F" font-family="Arial, sans-serif">Vehicle B</text>
      <text x="427" y="396" font-size="18" fill="#18313F" opacity="0.72" font-family="Arial, sans-serif">1 assigned</text>
      <rect x="34" y="568" width="708" height="374" rx="28" fill="#F7F3ED" />
      <line x1="94" y1="632" x2="94" y2="896" stroke="#0F3D56" stroke-width="8" stroke-linecap="round" />
      <circle cx="94" cy="652" r="14" fill="#F26B5B" />
      <circle cx="94" cy="764" r="14" fill="#0F3D56" />
      <circle cx="94" cy="876" r="14" fill="#6E8F62" />
      <text x="134" y="660" font-size="22" font-weight="700" fill="#18313F" font-family="Arial, sans-serif">Pickup</text>
      <text x="134" y="772" font-size="22" font-weight="700" fill="#18313F" font-family="Arial, sans-serif">Coffee stop</text>
      <text x="134" y="884" font-size="22" font-weight="700" fill="#18313F" font-family="Arial, sans-serif">Check-in</text>
    
      </g>
    </g>
  
    </g>
    <rect x="180" y="142" width="190" height="42" rx="21" fill="#0F3D56" opacity="0.15" />
    <text x="275" y="171" text-anchor="middle" font-size="24" font-weight="700" fill="#18313F" font-family="Arial, sans-serif">The problem</text>
    <text x="180" y="280" class="title"><tspan x="180" dy="0">Group trips turn chaotic</tspan><tspan x="180" dy="88">fast.</tspan></text>
    <text x="180" y="560" class="subtitle"><tspan x="180" dy="0">Coordinating stops, vehicles, and</tspan><tspan x="180" dy="48">plans shouldn't happen in scattered</tspan><tspan x="180" dy="48">chats.</tspan></text>
    
    <text x="180" y="960" font-size="28" font-weight="700" fill="#18313F" opacity="0.88" font-family="Arial, sans-serif">MyExplorer</text>
    <text x="180" y="1004" font-size="22" fill="#18313F" opacity="0.68" font-family="Arial, sans-serif">Trip planning, discovery, and saved routes in one place</text>
    <style>
      .title { font: 700 72px Arial, sans-serif; fill: #18313F; }
      .subtitle { font: 400 34px Arial, sans-serif; fill: #18313F; opacity: 0.8; }
    </style>
  </svg>
  