
  <svg xmlns="http://www.w3.org/2000/svg" width="2736" height="1260" viewBox="0 0 2736 1260">
    <defs>
      <linearGradient id="bg" x1="0" y1="0" x2="1" y2="1">
        <stop offset="0%" stop-color="#EEF5E8" />
        <stop offset="100%" stop-color="#DFE9D7" />
      </linearGradient>
      <filter id="shadow" x="-20%" y="-20%" width="140%" height="140%">
        <feDropShadow dx="0" dy="32" stdDeviation="30" flood-color="#19303D" flood-opacity="0.16" />
      </filter>
    </defs>
    <rect width="2736" height="1260" fill="url(#bg)" />
    <circle cx="2380" cy="1080" r="360" fill="#6E8F62" opacity="0.10" />
    <circle cx="320" cy="1060" r="260" fill="#FFFFFF" opacity="0.28" />
    <path d="M 0 920 C 400 820, 720 1080, 1120 960 S 1900 760, 2736 980 L 2736 1260 L 0 1260 Z" fill="#FFFFFF" opacity="0.22" />
    <g filter="url(#shadow)">
      
    <g>
      <rect x="1696" y="120" width="820" height="1020" rx="92" fill="#101A22" />
      <rect x="1718" y="142" width="776" height="976" rx="74" fill="#FFFFFF" />
      <rect x="2038" y="138" width="136" height="18" rx="9" fill="#101A22" opacity="0.92" />
      <g transform="translate(1718, 142)">
        
      
    <rect x="0" y="0" width="776" height="88" fill="#0A2B3D" />
    <circle cx="48" cy="44" r="14" fill="#F3E7D3" opacity="0.9" />
    <text x="84" y="53" font-size="30" font-weight="700" fill="#FFFFFF" font-family="Arial, sans-serif">Trip Planner</text>
  
      <rect x="30" y="118" width="419.04" height="828" rx="32" fill="#F7F3EE" />
      <line x1="88" y1="204" x2="88" y2="860" stroke="#6E8F62" stroke-width="8" stroke-linecap="round" />
      <circle cx="88" cy="228" r="16" fill="#F26B5B" />
      <circle cx="88" cy="416" r="16" fill="#0F3D56" />
      <circle cx="88" cy="604" r="16" fill="#6E8F62" />
      <circle cx="88" cy="792" r="16" fill="#F26B5B" />
      <text x="132" y="236" font-size="24" font-weight="700" fill="#18313F" font-family="Arial, sans-serif">Origin</text>
      <text x="132" y="424" font-size="24" font-weight="700" fill="#18313F" font-family="Arial, sans-serif">Lunch stop</text>
      <text x="132" y="612" font-size="24" font-weight="700" fill="#18313F" font-family="Arial, sans-serif">Scenic view</text>
      <text x="132" y="800" font-size="24" font-weight="700" fill="#18313F" font-family="Arial, sans-serif">Destination</text>
      <rect x="450.08" y="118" width="279.36" height="828" rx="32" fill="#DDECF2" />
      <path d="M 496.64 761.28 C 558.72 624.64, 527.6800000000001 409.91999999999996, 651.84 234.23999999999998" fill="none" stroke="#6E8F62" stroke-width="12" stroke-linecap="round" />
      <circle cx="496.64" cy="761.28" r="16" fill="#F26B5B" />
      <circle cx="651.84" cy="234.23999999999998" r="16" fill="#6E8F62" />
    
      </g>
    </g>
  
    </g>
    <rect x="180" y="142" width="190" height="42" rx="21" fill="#6E8F62" opacity="0.15" />
    <text x="275" y="171" text-anchor="middle" font-size="24" font-weight="700" fill="#18313F" font-family="Arial, sans-serif">Trip Planner</text>
    <text x="180" y="280" class="title"><tspan x="180" dy="0">Plan the whole route in</tspan><tspan x="180" dy="88">one flow.</tspan></text>
    <text x="180" y="560" class="subtitle"><tspan x="180" dy="0">Map your origin, stops, destination,</tspan><tspan x="180" dy="48">and timing without switching tools.</tspan></text>
    
    <text x="180" y="960" font-size="28" font-weight="700" fill="#18313F" opacity="0.88" font-family="Arial, sans-serif">MyExplorer</text>
    <text x="180" y="1004" font-size="22" fill="#18313F" opacity="0.68" font-family="Arial, sans-serif">Trip planning, discovery, and saved routes in one place</text>
    <style>
      .title { font: 700 72px Arial, sans-serif; fill: #18313F; }
      .subtitle { font: 400 34px Arial, sans-serif; fill: #18313F; opacity: 0.8; }
    </style>
  </svg>
  