
  <svg xmlns="http://www.w3.org/2000/svg" width="2736" height="1260" viewBox="0 0 2736 1260">
    <defs>
      <linearGradient id="bg" x1="0" y1="0" x2="1" y2="1">
        <stop offset="0%" stop-color="#EDF6FA" />
        <stop offset="100%" stop-color="#DCECF5" />
      </linearGradient>
      <filter id="shadow" x="-20%" y="-20%" width="140%" height="140%">
        <feDropShadow dx="0" dy="32" stdDeviation="30" flood-color="#19303D" flood-opacity="0.16" />
      </filter>
    </defs>
    <rect width="2736" height="1260" fill="url(#bg)" />
    <circle cx="2380" cy="1080" r="360" fill="#0F3D56" opacity="0.10" />
    <circle cx="320" cy="1060" r="260" fill="#FFFFFF" opacity="0.28" />
    <path d="M 0 920 C 400 820, 720 1080, 1120 960 S 1900 760, 2736 980 L 2736 1260 L 0 1260 Z" fill="#FFFFFF" opacity="0.22" />
    <g filter="url(#shadow)">
      
    <g>
      <rect x="1696" y="120" width="820" height="1020" rx="92" fill="#101A22" />
      <rect x="1718" y="142" width="776" height="976" rx="74" fill="#FFFFFF" />
      <rect x="2038" y="138" width="136" height="18" rx="9" fill="#101A22" opacity="0.92" />
      <g transform="translate(1718, 142)">
        
      
    <rect x="0" y="0" width="776" height="88" fill="#0A2B3D" />
    <circle cx="48" cy="44" r="14" fill="#F3E7D3" opacity="0.9" />
    <text x="84" y="53" font-size="30" font-weight="700" fill="#FFFFFF" font-family="Arial, sans-serif">Route Recommendations</text>
  
      <rect x="34" y="118" width="708" height="228" rx="28" fill="#E1EEF5" />
      <path d="M 94 270 C 217.28000000000003 210, 372.47999999999996 280, 666 182" fill="none" stroke="#0F3D56" stroke-width="10" stroke-linecap="round" />
      <circle cx="94" cy="270" r="14" fill="#F26B5B" />
      <circle cx="403.52000000000004" cy="252" r="14" fill="#0F3D56" />
      <circle cx="666" cy="182" r="14" fill="#6E8F62" />
      
    <g>
      <rect x="34" y="376" width="708" height="188" rx="28" fill="#F8E3D7" />
      <rect x="58" y="400" width="660" height="120" rx="24" fill="#FFFFFF" opacity="0.55" />
      <rect x="58" y="404" width="120" height="34" rx="17" fill="#FFFFFF" />
      <text x="118" y="427" text-anchor="middle" font-size="18" font-weight="700" fill="#18313F" font-family="Arial, sans-serif">Detour</text>
      <text x="58" y="492" font-size="28" font-weight="700" fill="#18313F" font-family="Arial, sans-serif">Coffee + rest stop</text>
      <text x="58" y="526" font-size="20" fill="#18313F" opacity="0.78" font-family="Arial, sans-serif">18 minutes ahead</text>
    </g>
  
      
    <g>
      <rect x="34" y="590" width="708" height="188" rx="28" fill="#E8EFE0" />
      <rect x="58" y="614" width="660" height="120" rx="24" fill="#FFFFFF" opacity="0.55" />
      <rect x="58" y="618" width="120" height="34" rx="17" fill="#FFFFFF" />
      <text x="118" y="641" text-anchor="middle" font-size="18" font-weight="700" fill="#18313F" font-family="Arial, sans-serif">Essential</text>
      <text x="58" y="706" font-size="28" font-weight="700" fill="#18313F" font-family="Arial, sans-serif">Fuel and supplies</text>
      <text x="58" y="740" font-size="20" fill="#18313F" opacity="0.78" font-family="Arial, sans-serif">Near your current leg</text>
    </g>
  
      
    <g>
      <rect x="34" y="804" width="708" height="138" rx="28" fill="#EFF5F7" />
      <rect x="58" y="828" width="660" height="120" rx="24" fill="#FFFFFF" opacity="0.55" />
      <rect x="58" y="832" width="120" height="34" rx="17" fill="#FFFFFF" />
      <text x="118" y="855" text-anchor="middle" font-size="18" font-weight="700" fill="#18313F" font-family="Arial, sans-serif">Pick</text>
      <text x="58" y="870" font-size="28" font-weight="700" fill="#18313F" font-family="Arial, sans-serif">Scenic lunch spot</text>
      <text x="58" y="904" font-size="20" fill="#18313F" opacity="0.78" font-family="Arial, sans-serif">Fits your route timing</text>
    </g>
  
    
      </g>
    </g>
  
    </g>
    <rect x="180" y="142" width="190" height="42" rx="21" fill="#0F3D56" opacity="0.15" />
    <text x="275" y="171" text-anchor="middle" font-size="24" font-weight="700" fill="#18313F" font-family="Arial, sans-serif">Route intelligence</text>
    <text x="180" y="280" class="title"><tspan x="180" dy="0">Make smarter stops along</tspan><tspan x="180" dy="88">the way.</tspan></text>
    <text x="180" y="560" class="subtitle"><tspan x="180" dy="0">Surface pitstops, essentials, dining,</tspan><tspan x="180" dy="48">and detours right on your route.</tspan></text>
    
    <text x="180" y="960" font-size="28" font-weight="700" fill="#18313F" opacity="0.88" font-family="Arial, sans-serif">MyExplorer</text>
    <text x="180" y="1004" font-size="22" fill="#18313F" opacity="0.68" font-family="Arial, sans-serif">Trip planning, discovery, and saved routes in one place</text>
    <style>
      .title { font: 700 72px Arial, sans-serif; fill: #18313F; }
      .subtitle { font: 400 34px Arial, sans-serif; fill: #18313F; opacity: 0.8; }
    </style>
  </svg>
  