
  <svg xmlns="http://www.w3.org/2000/svg" width="2736" height="1260" viewBox="0 0 2736 1260">
    <defs>
      <linearGradient id="bg" x1="0" y1="0" x2="1" y2="1">
        <stop offset="0%" stop-color="#F3F8EE" />
        <stop offset="100%" stop-color="#E2ECD9" />
      </linearGradient>
      <filter id="shadow" x="-20%" y="-20%" width="140%" height="140%">
        <feDropShadow dx="0" dy="32" stdDeviation="30" flood-color="#19303D" flood-opacity="0.16" />
      </filter>
    </defs>
    <rect width="2736" height="1260" fill="url(#bg)" />
    <circle cx="2380" cy="1080" r="360" fill="#6E8F62" opacity="0.10" />
    <circle cx="320" cy="1060" r="260" fill="#FFFFFF" opacity="0.28" />
    <path d="M 0 920 C 400 820, 720 1080, 1120 960 S 1900 760, 2736 980 L 2736 1260 L 0 1260 Z" fill="#FFFFFF" opacity="0.22" />
    <g filter="url(#shadow)">
      
    <g>
      <rect x="1696" y="120" width="820" height="1020" rx="92" fill="#101A22" />
      <rect x="1718" y="142" width="776" height="976" rx="74" fill="#FFFFFF" />
      <rect x="2038" y="138" width="136" height="18" rx="9" fill="#101A22" opacity="0.92" />
      <g transform="translate(1718, 142)">
        
      
    <rect x="0" y="0" width="776" height="88" fill="#0A2B3D" />
    <circle cx="48" cy="44" r="14" fill="#F3E7D3" opacity="0.9" />
    <text x="84" y="53" font-size="30" font-weight="700" fill="#FFFFFF" font-family="Arial, sans-serif">Saved Places</text>
  
      <rect x="34" y="118" width="708" height="168" rx="28" fill="#E8EFE0" />
      <text x="74" y="184" font-size="24" font-weight="700" fill="#18313F" font-family="Arial, sans-serif">Current location</text>
      <text x="74" y="220" font-size="18" fill="#18313F" opacity="0.75" font-family="Arial, sans-serif">Use as trip origin</text>
      
    <g>
      <rect x="34" y="312" width="708" height="172" rx="28" fill="#F7E2D7" />
      <rect x="58" y="336" width="660" height="120" rx="24" fill="#FFFFFF" opacity="0.55" />
      <rect x="58" y="340" width="120" height="34" rx="17" fill="#FFFFFF" />
      <text x="118" y="363" text-anchor="middle" font-size="18" font-weight="700" fill="#18313F" font-family="Arial, sans-serif">Saved</text>
      <text x="58" y="412" font-size="28" font-weight="700" fill="#18313F" font-family="Arial, sans-serif">Home</text>
      <text x="58" y="446" font-size="20" fill="#18313F" opacity="0.78" font-family="Arial, sans-serif">Quezon City</text>
    </g>
  
      
    <g>
      <rect x="34" y="510" width="708" height="172" rx="28" fill="#E1EEF4" />
      <rect x="58" y="534" width="660" height="120" rx="24" fill="#FFFFFF" opacity="0.55" />
      <rect x="58" y="538" width="120" height="34" rx="17" fill="#FFFFFF" />
      <text x="118" y="561" text-anchor="middle" font-size="18" font-weight="700" fill="#18313F" font-family="Arial, sans-serif">Saved</text>
      <text x="58" y="610" font-size="28" font-weight="700" fill="#18313F" font-family="Arial, sans-serif">Pickup point</text>
      <text x="58" y="644" font-size="20" fill="#18313F" opacity="0.78" font-family="Arial, sans-serif">Makati</text>
    </g>
  
      
    <g>
      <rect x="34" y="708" width="708" height="234" rx="28" fill="#EFF5E8" />
      <rect x="58" y="732" width="660" height="120" rx="24" fill="#FFFFFF" opacity="0.55" />
      <rect x="58" y="736" width="120" height="34" rx="17" fill="#FFFFFF" />
      <text x="118" y="759" text-anchor="middle" font-size="18" font-weight="700" fill="#18313F" font-family="Arial, sans-serif">Saved</text>
      <text x="58" y="870" font-size="28" font-weight="700" fill="#18313F" font-family="Arial, sans-serif">Family resort</text>
      <text x="58" y="904" font-size="20" fill="#18313F" opacity="0.78" font-family="Arial, sans-serif">Batangas</text>
    </g>
  
    
      </g>
    </g>
  
    </g>
    <rect x="180" y="142" width="190" height="42" rx="21" fill="#6E8F62" opacity="0.15" />
    <text x="275" y="171" text-anchor="middle" font-size="24" font-weight="700" fill="#18313F" font-family="Arial, sans-serif">Saved places</text>
    <text x="180" y="280" class="title"><tspan x="180" dy="0">Reuse favorites and</tspan><tspan x="180" dy="88">start faster.</tspan></text>
    <text x="180" y="560" class="subtitle"><tspan x="180" dy="0">Save home, pickup points, and</tspan><tspan x="180" dy="48">must-visit places for one-tap</tspan><tspan x="180" dy="48">planning.</tspan></text>
    
    <text x="180" y="960" font-size="28" font-weight="700" fill="#18313F" opacity="0.88" font-family="Arial, sans-serif">MyExplorer</text>
    <text x="180" y="1004" font-size="22" fill="#18313F" opacity="0.68" font-family="Arial, sans-serif">Trip planning, discovery, and saved routes in one place</text>
    <style>
      .title { font: 700 72px Arial, sans-serif; fill: #18313F; }
      .subtitle { font: 400 34px Arial, sans-serif; fill: #18313F; opacity: 0.8; }
    </style>
  </svg>
  