
  <svg xmlns="http://www.w3.org/2000/svg" width="2736" height="1260" viewBox="0 0 2736 1260">
    <defs>
      <linearGradient id="bg" x1="0" y1="0" x2="1" y2="1">
        <stop offset="0%" stop-color="#FFF3EE" />
        <stop offset="100%" stop-color="#F2DDD3" />
      </linearGradient>
      <filter id="shadow" x="-20%" y="-20%" width="140%" height="140%">
        <feDropShadow dx="0" dy="32" stdDeviation="30" flood-color="#19303D" flood-opacity="0.16" />
      </filter>
    </defs>
    <rect width="2736" height="1260" fill="url(#bg)" />
    <circle cx="2380" cy="1080" r="360" fill="#F26B5B" opacity="0.10" />
    <circle cx="320" cy="1060" r="260" fill="#FFFFFF" opacity="0.28" />
    <path d="M 0 920 C 400 820, 720 1080, 1120 960 S 1900 760, 2736 980 L 2736 1260 L 0 1260 Z" fill="#FFFFFF" opacity="0.22" />
    <g filter="url(#shadow)">
      
    <g>
      <rect x="1696" y="120" width="820" height="1020" rx="92" fill="#101A22" />
      <rect x="1718" y="142" width="776" height="976" rx="74" fill="#FFFFFF" />
      <rect x="2038" y="138" width="136" height="18" rx="9" fill="#101A22" opacity="0.92" />
      <g transform="translate(1718, 142)">
        
      
    <rect x="0" y="0" width="776" height="88" fill="#0A2B3D" />
    <circle cx="48" cy="44" r="14" fill="#F3E7D3" opacity="0.9" />
    <text x="84" y="53" font-size="30" font-weight="700" fill="#FFFFFF" font-family="Arial, sans-serif">Convoy</text>
  
      <rect x="34" y="118" width="708" height="140" rx="28" fill="#F9E6DC" />
      <text x="72" y="174" font-size="24" font-weight="700" fill="#18313F" font-family="Arial, sans-serif">Planned with MyExplorer</text>
      <text x="72" y="212" font-size="18" fill="#18313F" opacity="0.76" font-family="Arial, sans-serif">Trip details stay aligned across the crew</text>
      <rect x="34" y="286" width="345" height="238" rx="28" fill="#E0EDF4" />
      <rect x="397" y="286" width="345" height="238" rx="28" fill="#E7EEDB" />
      <text x="66" y="350" font-size="22" font-weight="700" fill="#18313F" font-family="Arial, sans-serif">2 vehicles</text>
      <text x="66" y="388" font-size="18" fill="#18313F" opacity="0.74" font-family="Arial, sans-serif">6 travelers</text>
      <text x="419" y="350" font-size="22" font-weight="700" fill="#18313F" font-family="Arial, sans-serif">4 assigned</text>
      <text x="419" y="388" font-size="18" fill="#18313F" opacity="0.74" font-family="Arial, sans-serif">2 seats open</text>
      <rect x="34" y="552" width="708" height="390" rx="28" fill="#F6F3EE" />
      <text x="72" y="618" font-size="24" font-weight="700" fill="#18313F" font-family="Arial, sans-serif">Shared assignments</text>
      <text x="72" y="664" font-size="18" fill="#18313F" opacity="0.72" font-family="Arial, sans-serif">Everyone sees the same plan, stops, and ride setup.</text>
    
      </g>
    </g>
  
    </g>
    <rect x="180" y="142" width="190" height="42" rx="21" fill="#F26B5B" opacity="0.15" />
    <text x="275" y="171" text-anchor="middle" font-size="24" font-weight="700" fill="#18313F" font-family="Arial, sans-serif">Convoy</text>
    <text x="180" y="280" class="title"><tspan x="180" dy="0">Keep everyone on the</tspan><tspan x="180" dy="88">same plan.</tspan></text>
    <text x="180" y="560" class="subtitle"><tspan x="180" dy="0">Manage vehicles, assignments, and</tspan><tspan x="180" dy="48">shared trip details together.</tspan></text>
    <rect x="180" y="748" width="310" height="54" rx="27" fill="#FFFFFF" opacity="0.94" />
    <text x="335" y="783" text-anchor="middle" font-size="24" font-weight="700" fill="#18313F" font-family="Arial, sans-serif">Planned with MyExplorer</text>
    <text x="180" y="960" font-size="28" font-weight="700" fill="#18313F" opacity="0.88" font-family="Arial, sans-serif">MyExplorer</text>
    <text x="180" y="1004" font-size="22" fill="#18313F" opacity="0.68" font-family="Arial, sans-serif">Trip planning, discovery, and saved routes in one place</text>
    <style>
      .title { font: 700 72px Arial, sans-serif; fill: #18313F; }
      .subtitle { font: 400 34px Arial, sans-serif; fill: #18313F; opacity: 0.8; }
    </style>
  </svg>
  