<svg width="512" height="512" viewBox="0 0 512 512" fill="none" xmlns="http://www.w3.org/2000/svg">
<path d="M328.322 320.725C335.182 321.385 341.666 322.961 348.322 324.725C340.194 338.233 330.467 350.682 320.322 362.725C319.634 363.549 319.634 363.549 318.932 364.389C313.073 371.391 307.1 378.107 300.56 384.491C298.504 386.543 296.588 388.647 294.697 390.85C289.424 396.987 283.675 402.549 277.521 407.796C275.863 409.25 274.247 410.754 272.654 412.28C261.798 422.611 261.798 422.611 253.322 422.788C239.468 417.881 227.103 401.693 216.872 391.461C215.064 389.655 213.248 387.857 211.431 386.059C205.305 379.962 199.504 373.81 194.143 367.02C192.455 364.894 190.703 362.864 188.884 360.85C184.514 355.903 180.543 350.649 176.574 345.38C175.349 343.761 174.11 342.155 172.869 340.549C172.131 339.576 171.394 338.603 170.634 337.6C169.97 336.731 169.306 335.863 168.622 334.967C167.979 333.858 167.979 333.858 167.322 332.725C168.322 329.725 168.322 329.725 171.122 328.085C172.281 327.553 173.44 327.022 174.634 326.475C175.785 325.934 176.936 325.392 178.122 324.835C181.322 323.725 181.322 323.725 183.474 323.713C186.327 325.276 187.703 327.525 189.572 330.163C190.371 331.269 191.172 332.375 191.974 333.479C192.371 334.031 192.768 334.583 193.177 335.151C206.288 353.172 221.991 369.423 237.634 385.225C238.727 386.337 238.727 386.337 239.842 387.472C244.698 392.336 249.8 396.634 255.322 400.725C260.355 397.644 264.279 394.008 268.384 389.788C268.983 389.18 269.582 388.572 270.199 387.946C271.375 386.752 272.549 385.555 273.722 384.357C277.062 380.949 280.454 377.594 283.845 374.237C290.226 367.911 296.56 361.628 302.322 354.725C303.125 353.8 303.928 352.874 304.755 351.921C310.002 345.853 315.003 339.639 319.822 333.225C320.326 332.555 320.83 331.885 321.35 331.194C323.872 327.801 326.226 324.406 328.322 320.725Z" fill="black"/>
<path d="M217.322 303.725C218.908 305.713 220.302 307.671 221.697 309.788C228.978 320.404 237.41 330.141 246.677 339.077C248.291 340.694 249.712 342.376 251.134 344.163C253.131 346.948 253.131 346.948 256.322 347.725C261.246 342.902 266.04 338.035 270.525 332.799C272.496 330.524 274.533 328.316 276.572 326.1C280.839 321.401 284.725 316.458 288.516 311.371C293.184 305.243 293.184 305.243 296.322 304.725C298.942 305.905 301.161 307.086 303.572 308.6C304.546 309.186 304.546 309.186 305.54 309.784C307.143 310.75 308.733 311.736 310.322 312.725C307.915 317.108 305.483 321.006 302.259 324.85C301.472 325.793 300.684 326.735 299.872 327.706C299.031 328.702 298.189 329.699 297.322 330.725C296.44 331.783 295.558 332.842 294.677 333.901C288.885 340.838 282.953 347.626 276.748 354.197C275.248 355.804 273.782 357.438 272.314 359.073C267.456 364.361 263.238 368.846 255.869 370.1C248.242 368.977 243.031 364.026 237.884 358.663C237.232 357.997 236.581 357.332 235.909 356.646C231.451 352.043 227.317 347.289 223.353 342.253C221.315 339.718 219.164 337.353 216.947 334.975C213.114 330.755 209.613 326.346 206.197 321.788C205.699 321.136 205.201 320.485 204.687 319.814C203.482 318.176 202.391 316.455 201.322 314.725C202.667 310.689 204.676 309.855 208.197 307.538C209.267 306.822 210.336 306.107 211.439 305.37C214.322 303.725 214.322 303.725 217.322 303.725Z" fill="black"/>
<path d="M148.322 187.725C148.117 188.764 147.912 189.803 147.701 190.874C145.483 202.227 145.483 202.227 144.322 213.725C144.269 214.562 144.216 215.398 144.162 216.26C143.471 237.599 149.306 258.849 157.906 278.179C158.248 278.975 158.59 279.772 158.943 280.592C159.257 281.295 159.57 281.997 159.894 282.721C160.322 284.725 160.322 284.725 159.564 286.877C157.793 289.512 155.676 290.507 152.884 291.975C151.432 292.756 151.432 292.756 149.951 293.553C147.322 294.725 147.322 294.725 144.322 294.725C134.302 274.899 126.067 252.153 125.322 229.725C125.296 229.039 125.27 228.353 125.244 227.646C124.353 200.663 124.353 200.663 129.322 190.725C135.613 188.004 141.546 187.397 148.322 187.725Z" fill="black"/>
<path d="M357.322 121.725C355.676 126.4 353.227 130.408 350.634 134.6C350.154 135.38 349.674 136.161 349.18 136.965C343.36 146.366 337.283 155.6 331.213 164.84C329.448 167.532 327.693 170.231 325.943 172.932C325.382 173.797 324.82 174.662 324.242 175.553C323.08 177.346 321.918 179.14 320.758 180.934C317.022 186.684 313.209 192.372 309.334 198.029C306.907 201.573 304.494 205.126 302.082 208.679C300.87 210.456 299.651 212.228 298.425 213.995C296.696 216.49 294.989 219 293.287 221.514C292.755 222.269 292.224 223.023 291.676 223.8C290.371 225.751 289.21 227.553 288.322 229.725C289.131 233.736 291.062 235.788 294.009 238.538C296.689 241.107 299.194 243.687 301.572 246.538C317.865 265.332 337.65 277.866 362.552 281.006C372.963 281.539 384.204 278.248 392.322 271.725C396.503 266.817 396.645 262.38 396.622 256.135C396.201 251.363 394.801 247.131 393.197 242.635C392.349 239.815 392.149 237.646 392.322 234.725C404.242 244.162 413.004 256.716 415.134 272.049C415.88 282.698 413.307 292.973 406.697 301.538C398.047 310.585 385.084 316.078 372.653 316.902C358.34 317.207 345.068 316.937 331.322 312.725C330.083 312.351 328.844 311.978 327.568 311.592C306.918 304.747 288.717 291.497 273.634 276.038C271.699 274.103 269.746 272.335 267.634 270.6C263.745 267.377 260.552 263.593 257.322 259.725C252.822 262.93 248.592 266.314 244.509 270.038C229.605 283.609 213.368 295.968 196.322 306.725C195.673 307.139 195.024 307.552 194.356 307.978C186.016 313.248 177.506 317.747 168.447 321.663C167.603 322.028 166.76 322.394 165.891 322.77C151.271 328.881 133.088 333.376 117.607 327.897C111.867 324.954 107.551 320.838 104.322 315.288C100.836 302.871 103.274 293.423 109.318 282.139C113.111 275.677 117.786 269.791 123.322 264.725C123.982 264.725 124.642 264.725 125.322 264.725C123.996 269.015 122.33 272.87 120.259 276.85C116.409 284.249 115.517 290.363 116.322 298.725C118.015 302.363 119.023 304.094 122.626 305.846C132.496 309.065 142.263 305.952 151.322 301.725C166.755 292.971 180.958 280.287 192.322 266.725C193.627 265.252 193.627 265.252 194.958 263.749C202.514 255.192 209.263 246.184 215.797 236.828C216.846 235.381 217.942 233.967 219.073 232.584C222.285 228.789 222.285 228.789 223.595 224.147C221.657 220.461 218.937 217.839 215.947 214.975C215.315 214.358 214.683 213.741 214.032 213.106C208.713 207.973 203.211 203.198 197.322 198.725C196.526 198.113 195.731 197.501 194.912 196.87C177.761 184.237 159.489 178.662 138.322 180.725C129.991 182.089 122.704 184.978 117.009 191.288C113.48 196.386 113.869 201.746 114.322 207.725C114.949 210.603 115.731 213.381 116.587 216.198C117.51 219.373 117.957 222.444 118.322 225.725C107.168 216.716 99.6618 205.913 96.3217 191.725C95.2018 180.527 96.8725 171.191 103.447 161.975C112.081 151.731 124.884 145.995 138.001 144.006C173.901 140.966 205.177 152.432 232.654 175.428C239.098 180.976 245.386 186.634 251.322 192.725C256.2 191.118 259.958 188.329 264.072 185.35C265.598 184.259 267.124 183.168 268.65 182.077C269.426 181.519 270.203 180.961 271.003 180.386C274.595 177.813 278.209 175.27 281.822 172.725C283.242 171.723 284.663 170.72 286.083 169.717C286.785 169.222 287.487 168.727 288.21 168.216C290.296 166.743 292.381 165.27 294.466 163.796C303.683 157.282 312.919 150.796 322.169 144.331C325.702 141.86 329.231 139.383 332.755 136.901C333.646 136.275 334.536 135.649 335.453 135.004C337.145 133.815 338.835 132.624 340.524 131.431C354.34 121.725 354.34 121.725 357.322 121.725ZM126.322 154.725C124.591 156.826 122.915 158.942 121.259 161.1C120.787 161.703 120.314 162.307 119.828 162.928C117.201 165.976 117.201 165.976 116.322 169.725C118.59 170.256 120.862 170.774 123.134 171.288C124.399 171.578 125.663 171.868 126.966 172.167C130.304 172.991 130.304 172.991 133.322 171.725C132.992 170.075 132.662 168.425 132.322 166.725C149.443 162.885 169.598 164.873 185.322 172.725C186.357 175.043 187.357 177.377 188.322 179.725C190.937 181.908 190.937 181.908 194.322 182.725C195.584 182.494 196.846 182.264 198.146 182.026C201.565 181.547 202.214 181.668 205.454 183.393C206.442 184.225 207.429 185.056 208.447 185.913C208.995 186.366 209.544 186.82 210.109 187.287C211.272 188.255 212.427 189.233 213.573 190.221C215.289 191.697 217.029 193.138 218.779 194.573C239.13 211.438 239.13 211.438 245.322 220.725C245.341 222.995 245.341 222.995 245.134 225.538C245.077 229.087 245.201 231.384 247.322 234.288C251.248 237.478 253.332 237.408 258.322 237.725C261.355 238.946 263.364 240.52 265.634 242.85C266.167 243.389 266.699 243.928 267.247 244.483C269.036 246.416 270.758 248.384 272.478 250.378C276.642 255.153 281.04 259.673 285.509 264.163C286.34 265 287.17 265.838 288.026 266.701C293.438 272.076 298.826 276.726 305.267 280.838C307.968 283.319 307.925 285.157 308.322 288.725C310.322 291.725 310.322 291.725 313.322 293.725C317.144 294.121 319.684 293.938 323.322 292.725C325.378 293.536 327.394 294.451 329.384 295.413C346.741 303.276 364.714 304.672 383.322 300.725C383.982 302.705 384.642 304.685 385.322 306.725C388.296 303.895 390.722 300.965 393.072 297.6C393.992 296.297 393.992 296.297 394.931 294.967C396.497 292.882 396.497 292.882 396.322 290.725C387.981 288.132 387.981 288.132 379.322 287.725C379.982 289.705 380.642 291.685 381.322 293.725C363.39 298.451 346.289 294.804 329.271 288.616C326.322 286.725 326.322 286.725 324.986 283.139C324.657 281.449 324.657 281.449 324.322 279.725C322.71 277.422 321.734 276.863 319.072 275.975C316.198 275.556 316.198 275.556 313.009 276.6C308.809 276.743 308.388 276.375 305.384 273.725C304.03 272.392 302.676 271.059 301.322 269.725C300.105 268.663 298.883 267.606 297.658 266.553C270.687 243.091 270.687 243.091 265.322 232.725C265.697 229.663 265.697 229.663 266.322 226.725C264.415 220.96 264.415 220.96 260.322 216.725C257.516 216.115 254.75 215.773 251.899 215.452C248.646 214.535 247.294 213.142 244.958 210.717C244.153 209.895 243.348 209.073 242.519 208.225C241.691 207.359 240.862 206.493 240.009 205.6C230.751 196.043 221.266 187.712 210.505 179.887C206.057 176.531 203.514 174.403 202.322 168.725C200.696 166.266 200.696 166.266 198.322 164.725C194.985 164.299 192.997 164.392 189.97 165.885C186.434 167.007 185.166 166.163 181.884 164.538C165.293 157.168 147.094 157.394 129.322 159.725C128.662 158.075 128.002 156.425 127.322 154.725C126.992 154.725 126.662 154.725 126.322 154.725ZM312.259 163.475C307.235 167.323 302.126 171.027 296.947 174.663C292.249 177.96 287.559 181.265 282.904 184.62C275.174 190.189 267.279 195.488 259.322 200.725C260.414 204.002 261.149 204.641 263.759 206.725C266.209 208.689 267.535 210.046 269.322 212.725C272.428 211.355 274.422 209.825 276.72 207.338C277.357 206.655 277.995 205.971 278.651 205.267C279.326 204.531 280.001 203.796 280.697 203.038C281.401 202.279 282.106 201.52 282.832 200.738C284.289 199.169 285.744 197.597 287.197 196.024C289.765 193.246 292.351 190.486 294.939 187.726C297.742 184.734 300.532 181.73 303.322 178.725C304.053 177.94 304.053 177.94 304.799 177.139C309.985 171.562 314.93 165.955 319.322 159.725C316.208 159.725 314.693 161.587 312.259 163.475ZM228.322 229.725C227.052 231.14 227.052 231.14 225.818 233.022C225.085 234.08 225.085 234.08 224.337 235.16C223.816 235.924 223.296 236.688 222.759 237.475C221.667 239.049 220.573 240.622 219.478 242.194C218.939 242.97 218.4 243.746 217.845 244.546C211.202 254.051 203.943 262.996 196.322 271.725C195.881 272.23 195.441 272.735 194.988 273.255C189.772 279.201 184.442 284.716 178.322 289.725C177.575 290.359 176.829 290.994 176.06 291.647C160.686 304.421 144.601 313.267 124.322 311.725C118.843 310.164 116.099 306.56 113.322 301.725C112.662 300.735 112.002 299.745 111.322 298.725C111.435 305.093 112.861 308.437 117.314 313.026C122.946 317.792 128.978 318.219 136.177 318.01C155.697 316.24 173.322 304.587 188.322 292.725C189.174 292.066 190.026 291.408 190.904 290.729C196.32 286.49 201.436 281.984 206.486 277.315C207.973 275.957 209.465 274.603 210.998 273.296C217.623 267.645 223.694 261.464 229.822 255.288C230.941 254.163 232.061 253.039 233.181 251.915C235.897 249.188 238.61 246.457 241.322 243.725C239.611 240.105 237.509 237.46 234.822 234.475C234.028 233.583 233.234 232.691 232.415 231.772C230.571 229.492 230.571 229.492 228.322 229.725Z" fill="black"/>
<path d="M356.322 139.725C363.586 142.147 368.519 153.973 371.802 160.538C380.831 179.475 385.74 198.858 385.634 219.913C385.627 221.677 385.627 221.677 385.619 223.477C385.418 238.597 383.941 259.796 375.322 272.725C372.207 273.914 369.127 273.859 365.822 273.85C364.883 273.853 363.945 273.855 362.978 273.858C360.6 273.739 358.595 273.401 356.322 272.725C356.717 271.267 357.113 269.808 357.509 268.35C357.78 267.35 358.051 266.35 358.329 265.319C359.056 262.687 359.801 260.065 360.564 257.444C369.939 225.051 367.706 195.161 352.189 165.088C350.519 161.808 350.519 161.808 348.517 159.643C347.322 157.725 347.322 157.725 347.38 154.874C348.494 151.15 350.158 148.53 352.384 145.35C353.118 144.291 353.851 143.231 354.607 142.139C355.173 141.343 355.739 140.546 356.322 139.725Z" fill="black"/>
<path d="M223.322 133.725C223.755 134.323 224.188 134.921 224.634 135.538C227.189 138.849 229.937 141.274 233.322 143.725C232.394 144.096 231.465 144.468 230.509 144.85C226.796 147.035 225.895 148.792 224.322 152.725C223.662 151.735 223.002 150.745 222.322 149.725C220.676 148.038 219.009 146.371 217.322 144.725C216.662 144.065 216.002 143.405 215.322 142.725C216.27 142.54 217.219 142.354 218.197 142.163C221.705 140.991 221.705 140.991 222.697 137.1C222.903 135.986 223.109 134.873 223.322 133.725Z" fill="black"/>
<path d="M382.322 131.725C383.085 132.509 383.848 133.293 384.634 134.1C387.231 136.798 387.231 136.798 390.322 138.725C389.724 138.952 389.125 139.179 388.509 139.413C385.758 141.063 384.797 142.922 383.322 145.725C382.724 144.962 382.125 144.199 381.509 143.413C379.852 141.377 378.219 139.527 376.322 137.725C376.94 137.478 377.559 137.23 378.197 136.975C380.672 135.519 381.273 134.347 382.322 131.725Z" fill="black"/>
<path d="M366.322 90.7252C368.322 91.7252 368.322 91.7252 369.068 93.8346C369.41 95.1417 369.41 95.1417 369.759 96.4752C371.231 102.019 371.231 102.019 374.322 106.725C376.788 107.933 379.261 108.913 381.849 109.831C384.114 110.65 386.193 111.604 388.322 112.725C387.742 112.895 387.161 113.066 386.564 113.241C380.489 115.125 375.139 116.87 371.572 122.475C370.138 126.203 369.195 129.829 368.322 133.725C367.662 133.725 367.002 133.725 366.322 133.725C366.163 132.917 366.005 132.109 365.841 131.276C364.158 122.742 364.158 122.742 358.322 116.725C354.378 115.175 350.395 113.888 346.322 112.725C349.254 111.171 352.181 110.096 355.322 109.038C359.571 107.338 361.729 105.909 363.65 101.741C364.854 98.1283 365.675 94.4748 366.322 90.7252Z" fill="black"/>
<path d="M343.322 90.7252C345.302 92.3752 347.282 94.0252 349.322 95.7252C348.847 96.1583 348.373 96.5915 347.884 97.0377C346.085 98.7483 346.085 98.7483 345.322 101.725C344.662 101.725 344.002 101.725 343.322 101.725C343.033 101.106 342.744 100.488 342.447 99.8502C341.384 97.5919 341.384 97.5919 339.322 95.7252C340.312 95.0652 341.302 94.4052 342.322 93.7252C342.652 92.7352 342.982 91.7452 343.322 90.7252Z" fill="black"/>
<path d="M335.322 116.725C337.007 118.373 338.678 120.035 340.322 121.725C338.434 123.216 336.537 124.692 334.634 126.163C334.104 126.584 333.573 127.004 333.027 127.438C329.879 129.852 327.363 131.719 323.322 131.725C321.095 130.389 321.095 130.389 318.697 128.35C297.049 111.781 268.26 106.032 241.51 109.042C231.012 110.615 220.994 113.306 211.322 117.725C210.161 118.251 209.001 118.777 207.806 119.319C198.461 123.769 190.076 128.993 182.697 136.288C180.819 137.922 179.84 138.669 177.353 138.94C174.954 138.701 172.679 138.235 170.322 137.725C167.969 137.362 165.615 137.008 163.259 136.663C161.28 136.352 159.3 136.04 157.322 135.725C174.679 111.248 204.045 95.7528 233.322 90.7252C269.032 85.0614 307.26 93.2454 335.322 116.725Z" fill="black"/>
</svg>
