
  <svg xmlns="http://www.w3.org/2000/svg" width="1080" height="1920" viewBox="0 0 1080 1920">
    <defs>
      <linearGradient id="bg" x1="0" y1="0" x2="1" y2="1">
        <stop offset="0%" stop-color="#FFF2E8" />
        <stop offset="100%" stop-color="#FCE0D0" />
      </linearGradient>
      <filter id="shadow" x="-20%" y="-20%" width="140%" height="140%">
        <feDropShadow dx="0" dy="28" stdDeviation="28" flood-color="#19303D" flood-opacity="0.18" />
      </filter>
    </defs>
    <rect width="1080" height="1920" fill="url(#bg)" />
    <circle cx="870" cy="1680" r="230" fill="#F26B5B" opacity="0.12" />
    <circle cx="180" cy="1600" r="180" fill="#FFFFFF" opacity="0.24" />
    <path d="M 0 1380 C 230 1300, 390 1470, 560 1410 S 860 1260, 1080 1360 L 1080 1920 L 0 1920 Z" fill="#FFFFFF" opacity="0.20" />
    <rect x="86" y="118" width="210" height="48" rx="24" fill="#F26B5B" opacity="0.16" />
    <text x="191" y="150" text-anchor="middle" font-size="24" font-weight="700" fill="#18313F" font-family="Arial, sans-serif">The problem</text>
    <text x="86" y="254" class="title"><tspan x="86" dy="0">Travel planning is</tspan><tspan x="86" dy="74">all over the</tspan><tspan x="86" dy="74">place.</tspan></text>
    <text x="86" y="470" class="subtitle"><tspan x="86" dy="0">Hotels, routes,</tspan><tspan x="86" dy="40">activities, and notes</tspan><tspan x="86" dy="40">usually live in different</tspan><tspan x="86" dy="40">apps.</tspan></text>
    
    <g filter="url(#shadow)">
      
    <g>
      <rect x="130" y="520" width="820" height="1180" rx="96" fill="#101A22" />
      <rect x="152" y="542" width="776" height="1136" rx="78" fill="#FFFFFF" />
      <rect x="472" y="538" width="136" height="18" rx="9" fill="#101A22" opacity="0.92" />
      <g transform="translate(152, 542)">
        
      
    <rect x="0" y="0" width="776" height="88" fill="#0A2B3D" />
    <circle cx="48" cy="44" r="14" fill="#F3E7D3" opacity="0.9" />
    <text x="84" y="53" font-size="30" font-weight="700" fill="#FFFFFF" font-family="Arial, sans-serif">Explore</text>
  
      
    <g>
      <rect x="34" y="118" width="708" height="276" rx="28" fill="#F7D9C8" />
      <rect x="58" y="142" width="660" height="124.2" rx="24" fill="#FFFFFF" opacity="0.55" />
      <rect x="58" y="146" width="120" height="34" rx="17" fill="#FFFFFF" />
      <text x="118" y="169" text-anchor="middle" font-size="18" font-weight="700" fill="#18313F" font-family="Arial, sans-serif">Stay</text>
      <text x="58" y="322" font-size="28" font-weight="700" fill="#18313F" font-family="Arial, sans-serif">Beach house</text>
      <text x="58" y="356" font-size="20" fill="#18313F" opacity="0.78" font-family="Arial, sans-serif">El Nido, Palawan</text>
    </g>
  
      
    <g>
      <rect x="34" y="418" width="708" height="236" rx="28" fill="#D9EAF2" />
      <rect x="58" y="442" width="660" height="120" rx="24" fill="#FFFFFF" opacity="0.55" />
      <rect x="58" y="446" width="120" height="34" rx="17" fill="#FFFFFF" />
      <text x="118" y="469" text-anchor="middle" font-size="18" font-weight="700" fill="#18313F" font-family="Arial, sans-serif">Trip</text>
      <text x="58" y="582" font-size="28" font-weight="700" fill="#18313F" font-family="Arial, sans-serif">Island hopping</text>
      <text x="58" y="616" font-size="20" fill="#18313F" opacity="0.78" font-family="Arial, sans-serif">Full-day activity</text>
    </g>
  
      
    <g>
      <rect x="34" y="676" width="708" height="426" rx="28" fill="#E7ECD7" />
      <rect x="58" y="700" width="660" height="191.70000000000002" rx="24" fill="#FFFFFF" opacity="0.55" />
      <rect x="58" y="704" width="120" height="34" rx="17" fill="#FFFFFF" />
      <text x="118" y="727" text-anchor="middle" font-size="18" font-weight="700" fill="#18313F" font-family="Arial, sans-serif">Notes</text>
      <text x="58" y="1030" font-size="28" font-weight="700" fill="#18313F" font-family="Arial, sans-serif">Saved notes</text>
      <text x="58" y="1064" font-size="20" fill="#18313F" opacity="0.78" font-family="Arial, sans-serif">Packing, timings, pickup</text>
    </g>
  
    
      </g>
    </g>
  
    </g>
    <text x="86" y="1780" font-size="28" font-weight="700" fill="#18313F" opacity="0.88" font-family="Arial, sans-serif">MyExplorer</text>
    <text x="86" y="1822" font-size="22" fill="#18313F" opacity="0.68" font-family="Arial, sans-serif">Trip planning, discovery, and saved routes in one place</text>
    <style>
      .title { font: 700 60px Arial, sans-serif; fill: #18313F; }
      .subtitle { font: 400 28px Arial, sans-serif; fill: #18313F; opacity: 0.82; }
    </style>
  </svg>
  