
  <svg xmlns="http://www.w3.org/2000/svg" width="1080" height="1920" viewBox="0 0 1080 1920">
    <defs>
      <linearGradient id="bg" x1="0" y1="0" x2="1" y2="1">
        <stop offset="0%" stop-color="#E8F2F7" />
        <stop offset="100%" stop-color="#D8E8EF" />
      </linearGradient>
      <filter id="shadow" x="-20%" y="-20%" width="140%" height="140%">
        <feDropShadow dx="0" dy="28" stdDeviation="28" flood-color="#19303D" flood-opacity="0.18" />
      </filter>
    </defs>
    <rect width="1080" height="1920" fill="url(#bg)" />
    <circle cx="870" cy="1680" r="230" fill="#0F3D56" opacity="0.12" />
    <circle cx="180" cy="1600" r="180" fill="#FFFFFF" opacity="0.24" />
    <path d="M 0 1380 C 230 1300, 390 1470, 560 1410 S 860 1260, 1080 1360 L 1080 1920 L 0 1920 Z" fill="#FFFFFF" opacity="0.20" />
    <rect x="86" y="118" width="210" height="48" rx="24" fill="#0F3D56" opacity="0.16" />
    <text x="191" y="150" text-anchor="middle" font-size="24" font-weight="700" fill="#18313F" font-family="Arial, sans-serif">The problem</text>
    <text x="86" y="254" class="title"><tspan x="86" dy="0">Group trips turn</tspan><tspan x="86" dy="74">chaotic fast.</tspan></text>
    <text x="86" y="470" class="subtitle"><tspan x="86" dy="0">Coordinating stops,</tspan><tspan x="86" dy="40">vehicles, and plans</tspan><tspan x="86" dy="40">shouldn't happen in</tspan><tspan x="86" dy="40">scattered chats.</tspan></text>
    
    <g filter="url(#shadow)">
      
    <g>
      <rect x="130" y="520" width="820" height="1180" rx="96" fill="#101A22" />
      <rect x="152" y="542" width="776" height="1136" rx="78" fill="#FFFFFF" />
      <rect x="472" y="538" width="136" height="18" rx="9" fill="#101A22" opacity="0.92" />
      <g transform="translate(152, 542)">
        
      
    <rect x="0" y="0" width="776" height="88" fill="#0A2B3D" />
    <circle cx="48" cy="44" r="14" fill="#F3E7D3" opacity="0.9" />
    <text x="84" y="53" font-size="30" font-weight="700" fill="#FFFFFF" font-family="Arial, sans-serif">Trip Planner</text>
  
      <rect x="34" y="126" width="708" height="154" rx="28" fill="#E6EFF4" />
      <text x="64" y="184" font-size="28" font-weight="700" fill="#18313F" font-family="Arial, sans-serif">Manila to La Union</text>
      <text x="64" y="224" font-size="20" fill="#18313F" opacity="0.75" font-family="Arial, sans-serif">4 travelers • 2 vehicles • 5 stops</text>
      <rect x="34" y="308" width="345" height="230" rx="26" fill="#F7E4D9" />
      <rect x="397" y="308" width="345" height="230" rx="26" fill="#E1EAD8" />
      <text x="64" y="360" font-size="24" font-weight="700" fill="#18313F" font-family="Arial, sans-serif">Vehicle A</text>
      <text x="64" y="396" font-size="18" fill="#18313F" opacity="0.72" font-family="Arial, sans-serif">3 assigned</text>
      <text x="427" y="360" font-size="24" font-weight="700" fill="#18313F" font-family="Arial, sans-serif">Vehicle B</text>
      <text x="427" y="396" font-size="18" fill="#18313F" opacity="0.72" font-family="Arial, sans-serif">1 assigned</text>
      <rect x="34" y="568" width="708" height="534" rx="28" fill="#F7F3ED" />
      <line x1="94" y1="632" x2="94" y2="1056" stroke="#0F3D56" stroke-width="8" stroke-linecap="round" />
      <circle cx="94" cy="652" r="14" fill="#F26B5B" />
      <circle cx="94" cy="764" r="14" fill="#0F3D56" />
      <circle cx="94" cy="876" r="14" fill="#6E8F62" />
      <text x="134" y="660" font-size="22" font-weight="700" fill="#18313F" font-family="Arial, sans-serif">Pickup</text>
      <text x="134" y="772" font-size="22" font-weight="700" fill="#18313F" font-family="Arial, sans-serif">Coffee stop</text>
      <text x="134" y="884" font-size="22" font-weight="700" fill="#18313F" font-family="Arial, sans-serif">Check-in</text>
    
      </g>
    </g>
  
    </g>
    <text x="86" y="1780" font-size="28" font-weight="700" fill="#18313F" opacity="0.88" font-family="Arial, sans-serif">MyExplorer</text>
    <text x="86" y="1822" font-size="22" fill="#18313F" opacity="0.68" font-family="Arial, sans-serif">Trip planning, discovery, and saved routes in one place</text>
    <style>
      .title { font: 700 60px Arial, sans-serif; fill: #18313F; }
      .subtitle { font: 400 28px Arial, sans-serif; fill: #18313F; opacity: 0.82; }
    </style>
  </svg>
  