
  <svg xmlns="http://www.w3.org/2000/svg" width="1080" height="1920" viewBox="0 0 1080 1920">
    <defs>
      <linearGradient id="bg" x1="0" y1="0" x2="1" y2="1">
        <stop offset="0%" stop-color="#EEF5E8" />
        <stop offset="100%" stop-color="#DFE9D7" />
      </linearGradient>
      <filter id="shadow" x="-20%" y="-20%" width="140%" height="140%">
        <feDropShadow dx="0" dy="28" stdDeviation="28" flood-color="#19303D" flood-opacity="0.18" />
      </filter>
    </defs>
    <rect width="1080" height="1920" fill="url(#bg)" />
    <circle cx="870" cy="1680" r="230" fill="#6E8F62" opacity="0.12" />
    <circle cx="180" cy="1600" r="180" fill="#FFFFFF" opacity="0.24" />
    <path d="M 0 1380 C 230 1300, 390 1470, 560 1410 S 860 1260, 1080 1360 L 1080 1920 L 0 1920 Z" fill="#FFFFFF" opacity="0.20" />
    <rect x="86" y="118" width="210" height="48" rx="24" fill="#6E8F62" opacity="0.16" />
    <text x="191" y="150" text-anchor="middle" font-size="24" font-weight="700" fill="#18313F" font-family="Arial, sans-serif">Trip Planner</text>
    <text x="86" y="254" class="title"><tspan x="86" dy="0">Plan the whole</tspan><tspan x="86" dy="74">route in one flow.</tspan></text>
    <text x="86" y="470" class="subtitle"><tspan x="86" dy="0">Map your origin, stops,</tspan><tspan x="86" dy="40">destination, and timing</tspan><tspan x="86" dy="40">without switching tools.</tspan></text>
    
    <g filter="url(#shadow)">
      
    <g>
      <rect x="130" y="520" width="820" height="1180" rx="96" fill="#101A22" />
      <rect x="152" y="542" width="776" height="1136" rx="78" fill="#FFFFFF" />
      <rect x="472" y="538" width="136" height="18" rx="9" fill="#101A22" opacity="0.92" />
      <g transform="translate(152, 542)">
        
      
    <rect x="0" y="0" width="776" height="88" fill="#0A2B3D" />
    <circle cx="48" cy="44" r="14" fill="#F3E7D3" opacity="0.9" />
    <text x="84" y="53" font-size="30" font-weight="700" fill="#FFFFFF" font-family="Arial, sans-serif">Trip Planner</text>
  
      <rect x="30" y="118" width="419.04" height="988" rx="32" fill="#F7F3EE" />
      <line x1="88" y1="204" x2="88" y2="1020" stroke="#6E8F62" stroke-width="8" stroke-linecap="round" />
      <circle cx="88" cy="228" r="16" fill="#F26B5B" />
      <circle cx="88" cy="416" r="16" fill="#0F3D56" />
      <circle cx="88" cy="604" r="16" fill="#6E8F62" />
      <circle cx="88" cy="792" r="16" fill="#F26B5B" />
      <text x="132" y="236" font-size="24" font-weight="700" fill="#18313F" font-family="Arial, sans-serif">Origin</text>
      <text x="132" y="424" font-size="24" font-weight="700" fill="#18313F" font-family="Arial, sans-serif">Lunch stop</text>
      <text x="132" y="612" font-size="24" font-weight="700" fill="#18313F" font-family="Arial, sans-serif">Scenic view</text>
      <text x="132" y="800" font-size="24" font-weight="700" fill="#18313F" font-family="Arial, sans-serif">Destination</text>
      <rect x="450.08" y="118" width="279.36" height="988" rx="32" fill="#DDECF2" />
      <path d="M 496.64 886.08 C 558.72 727.04, 527.6800000000001 477.12, 651.84 272.64" fill="none" stroke="#6E8F62" stroke-width="12" stroke-linecap="round" />
      <circle cx="496.64" cy="886.08" r="16" fill="#F26B5B" />
      <circle cx="651.84" cy="272.64" r="16" fill="#6E8F62" />
    
      </g>
    </g>
  
    </g>
    <text x="86" y="1780" font-size="28" font-weight="700" fill="#18313F" opacity="0.88" font-family="Arial, sans-serif">MyExplorer</text>
    <text x="86" y="1822" font-size="22" fill="#18313F" opacity="0.68" font-family="Arial, sans-serif">Trip planning, discovery, and saved routes in one place</text>
    <style>
      .title { font: 700 60px Arial, sans-serif; fill: #18313F; }
      .subtitle { font: 400 28px Arial, sans-serif; fill: #18313F; opacity: 0.82; }
    </style>
  </svg>
  