
  <svg xmlns="http://www.w3.org/2000/svg" width="1080" height="1920" viewBox="0 0 1080 1920">
    <defs>
      <linearGradient id="bg" x1="0" y1="0" x2="1" y2="1">
        <stop offset="0%" stop-color="#FFF1EC" />
        <stop offset="100%" stop-color="#F8DDD5" />
      </linearGradient>
      <filter id="shadow" x="-20%" y="-20%" width="140%" height="140%">
        <feDropShadow dx="0" dy="28" stdDeviation="28" flood-color="#19303D" flood-opacity="0.18" />
      </filter>
    </defs>
    <rect width="1080" height="1920" fill="url(#bg)" />
    <circle cx="870" cy="1680" r="230" fill="#F26B5B" opacity="0.12" />
    <circle cx="180" cy="1600" r="180" fill="#FFFFFF" opacity="0.24" />
    <path d="M 0 1380 C 230 1300, 390 1470, 560 1410 S 860 1260, 1080 1360 L 1080 1920 L 0 1920 Z" fill="#FFFFFF" opacity="0.20" />
    <rect x="86" y="118" width="210" height="48" rx="24" fill="#F26B5B" opacity="0.16" />
    <text x="191" y="150" text-anchor="middle" font-size="24" font-weight="700" fill="#18313F" font-family="Arial, sans-serif">Discovery</text>
    <text x="86" y="254" class="title"><tspan x="86" dy="0">Find stays,</tspan><tspan x="86" dy="74">activities, and</tspan><tspan x="86" dy="74">hidden gems.</tspan></text>
    <text x="86" y="470" class="subtitle"><tspan x="86" dy="0">Explore local-first</tspan><tspan x="86" dy="40">recommendations, not just</tspan><tspan x="86" dy="40">the usual chains.</tspan></text>
    
    <g filter="url(#shadow)">
      
    <g>
      <rect x="130" y="520" width="820" height="1180" rx="96" fill="#101A22" />
      <rect x="152" y="542" width="776" height="1136" rx="78" fill="#FFFFFF" />
      <rect x="472" y="538" width="136" height="18" rx="9" fill="#101A22" opacity="0.92" />
      <g transform="translate(152, 542)">
        
      
    <rect x="0" y="0" width="776" height="88" fill="#0A2B3D" />
    <circle cx="48" cy="44" r="14" fill="#F3E7D3" opacity="0.9" />
    <text x="84" y="53" font-size="30" font-weight="700" fill="#FFFFFF" font-family="Arial, sans-serif">Explore</text>
  
      
    <g>
      <rect x="34" y="118" width="708" height="260" rx="28" fill="#F4D7CC" />
      <rect x="58" y="142" width="660" height="120" rx="24" fill="#FFFFFF" opacity="0.55" />
      <rect x="58" y="146" width="120" height="34" rx="17" fill="#FFFFFF" />
      <text x="118" y="169" text-anchor="middle" font-size="18" font-weight="700" fill="#18313F" font-family="Arial, sans-serif">Stay</text>
      <text x="58" y="306" font-size="28" font-weight="700" fill="#18313F" font-family="Arial, sans-serif">The Lind Boracay</text>
      <text x="58" y="340" font-size="20" fill="#18313F" opacity="0.78" font-family="Arial, sans-serif">Top rated stay</text>
    </g>
  
      
    <g>
      <rect x="34" y="404" width="708" height="240" rx="28" fill="#DDEBF4" />
      <rect x="58" y="428" width="660" height="120" rx="24" fill="#FFFFFF" opacity="0.55" />
      <rect x="58" y="432" width="120" height="34" rx="17" fill="#FFFFFF" />
      <text x="118" y="455" text-anchor="middle" font-size="18" font-weight="700" fill="#18313F" font-family="Arial, sans-serif">Activity</text>
      <text x="58" y="572" font-size="28" font-weight="700" fill="#18313F" font-family="Arial, sans-serif">Island hopping</text>
      <text x="58" y="606" font-size="20" fill="#18313F" opacity="0.78" font-family="Arial, sans-serif">Full day in El Nido</text>
    </g>
  
      <rect x="34" y="670" width="708" height="432" rx="30" fill="#EFF4E7" />
      <text x="66" y="726" font-size="26" font-weight="700" fill="#18313F" font-family="Arial, sans-serif">Traveler stories</text>
      <circle cx="94" cy="792" r="28" fill="#F26B5B" opacity="0.78" />
      <text x="138" y="800" font-size="20" fill="#18313F" opacity="0.8" font-family="Arial, sans-serif">"Perfect 5-day itinerary."</text>
    
      </g>
    </g>
  
    </g>
    <text x="86" y="1780" font-size="28" font-weight="700" fill="#18313F" opacity="0.88" font-family="Arial, sans-serif">MyExplorer</text>
    <text x="86" y="1822" font-size="22" fill="#18313F" opacity="0.68" font-family="Arial, sans-serif">Trip planning, discovery, and saved routes in one place</text>
    <style>
      .title { font: 700 60px Arial, sans-serif; fill: #18313F; }
      .subtitle { font: 400 28px Arial, sans-serif; fill: #18313F; opacity: 0.82; }
    </style>
  </svg>
  