
  <svg xmlns="http://www.w3.org/2000/svg" width="1080" height="1920" viewBox="0 0 1080 1920">
    <defs>
      <linearGradient id="bg" x1="0" y1="0" x2="1" y2="1">
        <stop offset="0%" stop-color="#FFF3EE" />
        <stop offset="100%" stop-color="#F2DDD3" />
      </linearGradient>
      <filter id="shadow" x="-20%" y="-20%" width="140%" height="140%">
        <feDropShadow dx="0" dy="28" stdDeviation="28" flood-color="#19303D" flood-opacity="0.18" />
      </filter>
    </defs>
    <rect width="1080" height="1920" fill="url(#bg)" />
    <circle cx="870" cy="1680" r="230" fill="#F26B5B" opacity="0.12" />
    <circle cx="180" cy="1600" r="180" fill="#FFFFFF" opacity="0.24" />
    <path d="M 0 1380 C 230 1300, 390 1470, 560 1410 S 860 1260, 1080 1360 L 1080 1920 L 0 1920 Z" fill="#FFFFFF" opacity="0.20" />
    <rect x="86" y="118" width="210" height="48" rx="24" fill="#F26B5B" opacity="0.16" />
    <text x="191" y="150" text-anchor="middle" font-size="24" font-weight="700" fill="#18313F" font-family="Arial, sans-serif">Convoy</text>
    <text x="86" y="254" class="title"><tspan x="86" dy="0">Keep everyone on</tspan><tspan x="86" dy="74">the same plan.</tspan></text>
    <text x="86" y="470" class="subtitle"><tspan x="86" dy="0">Manage vehicles,</tspan><tspan x="86" dy="40">assignments, and shared</tspan><tspan x="86" dy="40">trip details together.</tspan></text>
    <rect x="86" y="360" width="306" height="48" rx="24" fill="#FFFFFF" opacity="0.94" />
    <text x="239" y="391" text-anchor="middle" font-size="22" font-weight="700" fill="#18313F" font-family="Arial, sans-serif">Planned with MyExplorer</text>
    <g filter="url(#shadow)">
      
    <g>
      <rect x="130" y="520" width="820" height="1180" rx="96" fill="#101A22" />
      <rect x="152" y="542" width="776" height="1136" rx="78" fill="#FFFFFF" />
      <rect x="472" y="538" width="136" height="18" rx="9" fill="#101A22" opacity="0.92" />
      <g transform="translate(152, 542)">
        
      
    <rect x="0" y="0" width="776" height="88" fill="#0A2B3D" />
    <circle cx="48" cy="44" r="14" fill="#F3E7D3" opacity="0.9" />
    <text x="84" y="53" font-size="30" font-weight="700" fill="#FFFFFF" font-family="Arial, sans-serif">Convoy</text>
  
      <rect x="34" y="118" width="708" height="140" rx="28" fill="#F9E6DC" />
      <text x="72" y="174" font-size="24" font-weight="700" fill="#18313F" font-family="Arial, sans-serif">Planned with MyExplorer</text>
      <text x="72" y="212" font-size="18" fill="#18313F" opacity="0.76" font-family="Arial, sans-serif">Trip details stay aligned across the crew</text>
      <rect x="34" y="286" width="345" height="238" rx="28" fill="#E0EDF4" />
      <rect x="397" y="286" width="345" height="238" rx="28" fill="#E7EEDB" />
      <text x="66" y="350" font-size="22" font-weight="700" fill="#18313F" font-family="Arial, sans-serif">2 vehicles</text>
      <text x="66" y="388" font-size="18" fill="#18313F" opacity="0.74" font-family="Arial, sans-serif">6 travelers</text>
      <text x="419" y="350" font-size="22" font-weight="700" fill="#18313F" font-family="Arial, sans-serif">4 assigned</text>
      <text x="419" y="388" font-size="18" fill="#18313F" opacity="0.74" font-family="Arial, sans-serif">2 seats open</text>
      <rect x="34" y="552" width="708" height="550" rx="28" fill="#F6F3EE" />
      <text x="72" y="618" font-size="24" font-weight="700" fill="#18313F" font-family="Arial, sans-serif">Shared assignments</text>
      <text x="72" y="664" font-size="18" fill="#18313F" opacity="0.72" font-family="Arial, sans-serif">Everyone sees the same plan, stops, and ride setup.</text>
    
      </g>
    </g>
  
    </g>
    <text x="86" y="1780" font-size="28" font-weight="700" fill="#18313F" opacity="0.88" font-family="Arial, sans-serif">MyExplorer</text>
    <text x="86" y="1822" font-size="22" fill="#18313F" opacity="0.68" font-family="Arial, sans-serif">Trip planning, discovery, and saved routes in one place</text>
    <style>
      .title { font: 700 60px Arial, sans-serif; fill: #18313F; }
      .subtitle { font: 400 28px Arial, sans-serif; fill: #18313F; opacity: 0.82; }
    </style>
  </svg>
  